<svg id="Layer_1" data-name="Layer 1" xmlns="http://www.w3.org/2000/svg" viewBox="0 0 328.17 328.07"><defs><style>.cls-1{fill:#8e9097;}.cls-2{fill:#575a65;}.cls-3{fill:#8d8f96;}.cls-4{fill:#909299;}.cls-5{fill:#c3c4c8;}.cls-6{fill:#c8c9cd;}.cls-7{fill:#c6c7cb;}.cls-8{fill:#202432;}.cls-9{fill:#798efd;}</style></defs><title>logo</title><path class="cls-1" d="M311,560.64h-8.88a.58.58,0,0,1,0-.19h8.92A1.23,1.23,0,0,0,311,560.64Z" transform="translate(-142.47 -232.57)"/><path class="cls-2" d="M470.64,394.8v3.6l-.21,0c0-1.22,0-2.44,0-3.65A.31.31,0,0,1,470.64,394.8Z" transform="translate(-142.47 -232.57)"/><path class="cls-3" d="M470.64,394.8a.31.31,0,0,0-.19,0c0-1,0-2.07,0-3.11l.21,0Z" transform="translate(-142.47 -232.57)"/><path class="cls-4" d="M470.43,398.42l.21,0v3.12h-.21Z" transform="translate(-142.47 -232.57)"/><path class="cls-5" d="M302.14,560.45a.58.58,0,0,0,0,.19h-1.92a1.34,1.34,0,0,1,0-.2Z" transform="translate(-142.47 -232.57)"/><path class="cls-6" d="M311,560.64a1.23,1.23,0,0,1,0-.2H313a.74.74,0,0,0,0,.21Z" transform="translate(-142.47 -232.57)"/><path class="cls-7" d="M470.64,391.68l-.21,0c0-.56,0-1.11,0-1.67a.34.34,0,0,1,.2,0Z" transform="translate(-142.47 -232.57)"/><path class="cls-6" d="M470.43,401.53h.21v1.68h-.21Z" transform="translate(-142.47 -232.57)"/><path class="cls-8" d="M470.43,401.53v1.68A164,164,0,0,1,313,560.43H300.23a164.06,164.06,0,0,1-68.29-310.06,156.63,156.63,0,0,1,51-16.16c48.49-6.4,91.87,5.71,129.45,37.06,27.06,22.58,44.67,51.37,53.37,85.55A159.91,159.91,0,0,1,470.44,390c0,.56,0,1.11,0,1.67,0,1,0,2.07,0,3.11,0,1.21,0,2.43,0,3.65Zm-164.95,147c86.65.1,153-70.38,152.78-152.1-.21-86.88-70.23-150.8-150.06-152.66-80.74-1.89-154.56,66.47-154.52,150.56C153.72,485.18,227,548.82,305.48,548.54Z" transform="translate(-142.47 -232.57)"/><path class="cls-9" d="M305.48,548.54c-78.51.28-151.76-63.36-151.8-154.2,0-84.09,73.78-152.45,154.52-150.56,79.83,1.86,149.85,65.78,150.06,152.66C458.47,478.16,392.13,548.64,305.48,548.54Zm146-152.65a146.72,146.72,0,0,0-1.92-24.23,136.24,136.24,0,0,0-15.68-44.88,153.52,153.52,0,0,0-27.79-35.6A143.16,143.16,0,0,0,372,266.62c-18.8-9.63-38.85-14.39-59.89-15.23a156.41,156.41,0,0,0-29.88,1.53,136.52,136.52,0,0,0-43.82,14.42,152.07,152.07,0,0,0-37.59,28.49,140.46,140.46,0,0,0-26.55,37.79c-9,18.82-13.22,38.76-13.8,59.54A149.69,149.69,0,0,0,162,419a136,136,0,0,0,14.46,44.41A153.57,153.57,0,0,0,207.86,504a140.27,140.27,0,0,0,33.56,23.31c19,9.38,39.12,13.88,60.19,14.56A151.59,151.59,0,0,0,330.16,540a137,137,0,0,0,39.35-12.45,149.19,149.19,0,0,0,37.6-26.66A142.82,142.82,0,0,0,438,458.37C447.29,438.58,451.43,417.67,451.48,395.89Z" transform="translate(-142.47 -232.57)"/><path class="cls-8" d="M451.48,395.89c-.05,21.78-4.19,42.69-13.49,62.48a142.82,142.82,0,0,1-30.88,42.56,149.19,149.19,0,0,1-37.6,26.66A137,137,0,0,1,330.16,540a151.59,151.59,0,0,1-28.55,1.78c-21.07-.68-41.23-5.18-60.19-14.56A140.27,140.27,0,0,1,207.86,504a153.57,153.57,0,0,1-31.44-40.57A136,136,0,0,1,162,419a149.69,149.69,0,0,1-1.54-25.81c.58-20.78,4.81-40.72,13.8-59.54a140.46,140.46,0,0,1,26.55-37.79,152.07,152.07,0,0,1,37.59-28.49,136.52,136.52,0,0,1,43.82-14.42,156.41,156.41,0,0,1,29.88-1.53c21,.84,41.09,5.6,59.89,15.23a143.16,143.16,0,0,1,34.14,24.56,153.52,153.52,0,0,1,27.79,35.6,136.24,136.24,0,0,1,15.68,44.88A146.72,146.72,0,0,1,451.48,395.89ZM289.67,336.31c-8.36.6-14.38-8.06-14.27-13.73.06-3.16.55-6.29.65-9.44a3.83,3.83,0,0,0-2.59-4c-5-1.89-10-4-15.18-5.55-2.66-.83-3.95-.36-5.54,1.95-1,1.37-1.78,2.84-2.68,4.25-2.41,3.79-5.54,6.61-10.12,7.43a22.81,22.81,0,0,1-7.51-.1,6.61,6.61,0,0,1-4.51-2.7c-2-2.72-4.34-5.12-6.55-7.64-1.71-1.95-3.3-2.19-5.68-1-1.79.87-3.57,1.78-5.37,2.64-2.67,1.26-5.36,2.5-8,3.74-2.45,1.15-3.2,2.45-2.82,5.15.21,1.54.58,3.06.83,4.59.39,2.37,1,4.75.7,7.13-.77,5.35-3.92,9.08-8.56,11.57a11.34,11.34,0,0,1-7.23,1.08,38.36,38.36,0,0,0-6.26-.88c-3.26,0-4.61.83-5.68,4-1.36,4-2.58,8-4.23,11.84-1.74,4.09-.95,6.5,2.88,8.74a49.59,49.59,0,0,1,6.36,4.49c2,1.64,3.4,3.57,3.48,6.28,0,1.12.23,2.23.37,3.34.52,4.24-.66,7.77-4.09,10.51-2.31,1.85-4.5,3.85-6.71,5.81-1.62,1.43-2,2.94-1.14,4.83q3.44,7.38,7,14.71a3.64,3.64,0,0,0,4.24,2.17c3.44-.51,6.86-1.1,10.29-1.63a8.24,8.24,0,0,1,7.37,1.94c.49.46,1.06.85,1.57,1.29,4.8,4.17,7.12,9.13,5.08,15.57a13.08,13.08,0,0,0-.46,4.15c.07,2.71,1.89,4.19,4.22,4.93,4.76,1.51,9.42,3.3,14.17,4.81,2.76.88,3.87.41,5.4-2.07,1.11-1.8,2.07-3.69,3.34-5.4,3.61-4.85,8.44-7,14.4-6.26a11.54,11.54,0,0,1,7.38,3.6c1.77,2,3.36,4.07,5,6.13,2.16,2.7,4.62,3.22,7.6,1.56,2.13-1.19,4.32-2.26,6.54-3.26s4.69-2,6.91-3.31c1.87-1.07,2.39-2,2-4.14s-.93-3.88-1.32-5.84c-1-5-.65-9.84,3-13.82,3-3.26,6.59-5.43,11.28-5,2.18.2,4.38.34,6.56.61,3.78.49,5.35-.46,6.58-4.1.67-2,1.41-4,2.08-6,1-3,2.33-6,3-9.07a3.11,3.11,0,0,0-1.13-3.31,20,20,0,0,0-3.31-2.15,21.82,21.82,0,0,1-6.65-5.42c-3.15-4-3.54-8.6-2.78-13.42a7.2,7.2,0,0,1,2.69-4.52q4-3.34,7.88-6.84a3.91,3.91,0,0,0,1-5.19q-3.33-7.1-6.78-14.15c-1.19-2.42-2.28-2.89-4.94-2.4C296.16,335.31,292.85,336.37,289.67,336.31ZM299,507.38a2.85,2.85,0,0,0,1.11,2,6.78,6.78,0,0,0,.93.75c3.64,2.47,7.23,5,10.73,7.67a3.73,3.73,0,0,0,4.94,0c.32-.24.66-.45,1-.7,2.26-1.78,4.51-3.57,6.79-5.34a6.34,6.34,0,0,1,4.21-1.44c5.82.14,9.85,3.06,12.5,8.07.95,1.8,1.66,3.72,2.73,5.45a4.64,4.64,0,0,0,4.8,2.26c1.51-.16,3-.31,4.51-.59,3.1-.56,6.25-.86,9.32-1.6a3,3,0,0,0,2.51-2.81c.3-2.86.55-5.73.92-8.58.87-6.53,9.32-12,15.64-9.4,2.33.95,4.72,1.74,7.09,2.58a3.71,3.71,0,0,0,4.64-1.42c.26-.35.55-.69.8-1,2.28-3.28,4.55-6.57,7-9.73,1.57-2,1.56-3.22.05-5.31-1.18-1.62-2.46-3.15-3.71-4.71-2.77-3.46-4.14-7.29-2.91-11.72,1.08-3.88,3.76-6.41,7.3-8.11,2.09-1,4.2-1.95,6.29-3a3,3,0,0,0,1.8-3.52c-.82-4.68-1.53-9.38-2.37-14.05-.43-2.42-1.18-3-3.6-3.25l-6.79-.73c-7.79-.81-13.33-8.77-10.29-16.4.67-1.67,1.23-3.37,1.74-5.09a5.52,5.52,0,0,0-1.74-6.27,90,90,0,0,0-10.58-7.85,3.83,3.83,0,0,0-5,.37c-1.55,1.32-3.09,2.67-4.68,3.93-3.28,2.6-6.95,3.76-11.1,2.75a12,12,0,0,1-7.91-6.47c-1-1.94-1.83-4-3-5.87a4.88,4.88,0,0,0-4.65-2.6A39.19,39.19,0,0,0,336,396c-3.15.49-6.36.68-9.43,1.64a4.59,4.59,0,0,0-3.28,3.49,34.42,34.42,0,0,0-.73,7c-.23,7-8.4,12.69-15.07,10.43a52.36,52.36,0,0,1-6.85-2.51c-2.36-1.2-3.89-.24-5.42,1.31a9.85,9.85,0,0,0-.92,1.11c-2.34,3.29-4.66,6.59-7,9.87a3.91,3.91,0,0,0,0,5c1.27,1.81,2.72,3.45,4.11,5.16,5.45,6.72,3.39,15.55-4.45,19.18a42.55,42.55,0,0,0-5.31,2.78,5,5,0,0,0-2.52,4.71A109.76,109.76,0,0,0,281,478.57c.42,2.34,1.17,2.86,3.56,3.12a78.27,78.27,0,0,1,8.09.95,12.09,12.09,0,0,1,9.46,14.3,62.72,62.72,0,0,1-2.23,6.57A12.57,12.57,0,0,0,299,507.38Zm27.35-180.3c-.76,0-1.52,0-2.28,0-2.95.05-3.92.72-4.75,3.57-1,3.33-1.84,6.69-2.71,10-.43,1.68-.13,2.39,1.37,3.33,1.92,1.21,3.93,2.3,5.85,3.52a10.16,10.16,0,0,1,2,15.35c-1.14,1.23-2.32,2.43-3.49,3.62-2.14,2.17-2.26,2.89-.73,5.57,1.65,2.87,3.33,5.73,5,8.59,1.29,2.18,2.17,2.56,4.67,2,1.79-.42,3.55-1,5.33-1.39a9.73,9.73,0,0,1,12.17,8,41.72,41.72,0,0,1,.19,6.22c.07,2.68.8,3.79,3.35,4.6,2.89.92,5.84,1.61,8.81,2.25a5.31,5.31,0,0,0,6.08-2.49c1-1.54,2-3.1,3-4.65,2.82-4.42,10.45-5.5,14.35-2,1.69,1.52,3.26,3.18,5,4.7s2.51,1.49,4.32.44c2.9-1.69,5.79-3.4,8.65-5.16,2.47-1.53,2.9-2.6,2.27-5.42-.49-2.18-1.09-4.33-1.6-6.51a4,4,0,0,1,.19-3.14c.84-1.36,1.67-2.74,2.62-4a8.94,8.94,0,0,1,7.83-3.85c1.28.05,2.56.09,3.84,0,2.93-.1,4-.87,4.89-3.67a84.21,84.21,0,0,0,2.26-8.56,4.9,4.9,0,0,0-2.38-5.75c-1.51-.89-3-1.81-4.52-2.71a7.44,7.44,0,0,1-4-5.35c-.57-3.58-.68-7,1.9-10a18.44,18.44,0,0,1,2.76-2.29c1.94-1.51,2.87-4.23,2-6a58.48,58.48,0,0,0-5.21-8.88,4.71,4.71,0,0,0-2.37-1.73,8.8,8.8,0,0,0-6.16.3c-6.85,2.42-12.7-1.14-13.9-8.29-.41-2.42-.23-4.87-.4-7.29-.12-1.67-.46-2.23-2.06-2.65-3.28-.88-6.56-1.76-9.86-2.55-3.07-.73-4.49-.13-6.18,2.51a28.86,28.86,0,0,0-2.12,3.75c-2.37,5.4-11.26,7-15.5,2.64-.88-.92-1.92-1.69-2.86-2.56a5.91,5.91,0,0,0-7.76-.88c-2.21,1.3-4.46,2.51-6.63,3.86-2.55,1.57-3,2.68-2.34,5.62.5,2.26,1.09,4.5,1.62,6.75a3.64,3.64,0,0,1-.25,2.69,29.81,29.81,0,0,1-2.83,4.44A9.11,9.11,0,0,1,330.3,327,12.7,12.7,0,0,1,326.36,327.08Z" transform="translate(-142.47 -232.57)"/><path class="cls-9" d="M289.67,336.31c3.18.06,6.49-1,9.86-1.62,2.66-.49,3.75,0,4.94,2.4q3.45,7.05,6.78,14.15a3.91,3.91,0,0,1-1,5.19q-3.87,3.49-7.88,6.84a7.2,7.2,0,0,0-2.69,4.52c-.76,4.82-.37,9.42,2.78,13.42a21.82,21.82,0,0,0,6.65,5.42,20,20,0,0,1,3.31,2.15,3.11,3.11,0,0,1,1.13,3.31c-.72,3.12-2,6-3,9.07-.67,2-1.41,4-2.08,6-1.23,3.64-2.8,4.59-6.58,4.1-2.18-.27-4.38-.41-6.56-.61-4.69-.41-8.27,1.76-11.28,5-3.68,4-4,8.78-3,13.82.39,2,1,3.88,1.32,5.84s-.15,3.07-2,4.14c-2.22,1.28-4.59,2.25-6.91,3.31s-4.41,2.07-6.54,3.26c-3,1.66-5.44,1.14-7.6-1.56-1.65-2.06-3.24-4.16-5-6.13a11.54,11.54,0,0,0-7.38-3.6c-6-.76-10.79,1.41-14.4,6.26-1.27,1.71-2.23,3.6-3.34,5.4-1.53,2.48-2.64,3-5.4,2.07-4.75-1.51-9.41-3.3-14.17-4.81-2.33-.74-4.15-2.22-4.22-4.93a13.08,13.08,0,0,1,.46-4.15c2-6.44-.28-11.4-5.08-15.57-.51-.44-1.08-.83-1.57-1.29a8.24,8.24,0,0,0-7.37-1.94c-3.43.53-6.85,1.12-10.29,1.63a3.64,3.64,0,0,1-4.24-2.17q-3.56-7.33-7-14.71c-.88-1.89-.48-3.4,1.14-4.83,2.21-2,4.4-4,6.71-5.81,3.43-2.74,4.61-6.27,4.09-10.51-.14-1.11-.34-2.22-.37-3.34-.08-2.71-1.48-4.64-3.48-6.28a49.59,49.59,0,0,0-6.36-4.49c-3.83-2.24-4.62-4.65-2.88-8.74,1.65-3.86,2.87-7.87,4.23-11.84,1.07-3.13,2.42-3.94,5.68-4a38.36,38.36,0,0,1,6.26.88,11.34,11.34,0,0,0,7.23-1.08c4.64-2.49,7.79-6.22,8.56-11.57.34-2.38-.31-4.76-.7-7.13-.25-1.53-.62-3.05-.83-4.59-.38-2.7.37-4,2.82-5.15,2.68-1.24,5.37-2.48,8-3.74,1.8-.86,3.58-1.77,5.37-2.64,2.38-1.16,4-.92,5.68,1,2.21,2.52,4.57,4.92,6.55,7.64a6.61,6.61,0,0,0,4.51,2.7,22.81,22.81,0,0,0,7.51.1c4.58-.82,7.71-3.64,10.12-7.43.9-1.41,1.73-2.88,2.68-4.25,1.59-2.31,2.88-2.78,5.54-1.95,5.15,1.6,10.14,3.66,15.18,5.55a3.83,3.83,0,0,1,2.59,4c-.1,3.15-.59,6.28-.65,9.44C275.29,328.25,281.31,336.91,289.67,336.31ZM268.6,376.06a27.84,27.84,0,1,0-28.25,27.82C256.28,403.89,268.6,391.75,268.6,376.06Z" transform="translate(-142.47 -232.57)"/><path class="cls-9" d="M299,507.38a12.57,12.57,0,0,1,.87-3.87,62.72,62.72,0,0,0,2.23-6.57,12.09,12.09,0,0,0-9.46-14.3,78.27,78.27,0,0,0-8.09-.95c-2.39-.26-3.14-.78-3.56-3.12a109.76,109.76,0,0,1-1.88-13.39,5,5,0,0,1,2.52-4.71,42.55,42.55,0,0,1,5.31-2.78c7.84-3.63,9.9-12.46,4.45-19.18-1.39-1.71-2.84-3.35-4.11-5.16a3.91,3.91,0,0,1,0-5c2.35-3.28,4.67-6.58,7-9.87a9.85,9.85,0,0,1,.92-1.11c1.53-1.55,3.06-2.51,5.42-1.31a52.36,52.36,0,0,0,6.85,2.51c6.67,2.26,14.84-3.41,15.07-10.43a34.42,34.42,0,0,1,.73-7,4.59,4.59,0,0,1,3.28-3.49c3.07-1,6.28-1.15,9.43-1.64a39.19,39.19,0,0,1,4.06-.31,4.88,4.88,0,0,1,4.65,2.6c1.15,1.88,2,3.93,3,5.87a12,12,0,0,0,7.91,6.47c4.15,1,7.82-.15,11.1-2.75,1.59-1.26,3.13-2.61,4.68-3.93a3.83,3.83,0,0,1,5-.37,90,90,0,0,1,10.58,7.85,5.52,5.52,0,0,1,1.74,6.27c-.51,1.72-1.07,3.42-1.74,5.09-3,7.63,2.5,15.59,10.29,16.4l6.79.73c2.42.25,3.17.83,3.6,3.25.84,4.67,1.55,9.37,2.37,14.05a3,3,0,0,1-1.8,3.52c-2.09,1-4.2,2-6.29,3-3.54,1.7-6.22,4.23-7.3,8.11-1.23,4.43.14,8.26,2.91,11.72,1.25,1.56,2.53,3.09,3.71,4.71,1.51,2.09,1.52,3.3-.05,5.31-2.45,3.16-4.72,6.45-7,9.73-.25.36-.54.7-.8,1a3.71,3.71,0,0,1-4.64,1.42c-2.37-.84-4.76-1.63-7.09-2.58-6.32-2.6-14.77,2.87-15.64,9.4-.37,2.85-.62,5.72-.92,8.58a3,3,0,0,1-2.51,2.81c-3.07.74-6.22,1-9.32,1.6-1.49.28-3,.43-4.51.59a4.64,4.64,0,0,1-4.8-2.26c-1.07-1.73-1.78-3.65-2.73-5.45-2.65-5-6.68-7.93-12.5-8.07a6.34,6.34,0,0,0-4.21,1.44c-2.28,1.77-4.53,3.56-6.79,5.34-.31.25-.65.46-1,.7a3.73,3.73,0,0,1-4.94,0c-3.5-2.66-7.09-5.2-10.73-7.67a6.78,6.78,0,0,1-.93-.75A2.85,2.85,0,0,1,299,507.38Zm69.87-46.69c0-13.28-11.4-24.56-24.83-24.57-13.11,0-24.41,11.51-24.41,24.88s11.37,24.46,24.78,24.48C357.61,485.51,368.88,474.09,368.88,460.69Z" transform="translate(-142.47 -232.57)"/><path class="cls-9" d="M326.36,327.08a12.7,12.7,0,0,0,3.94,0,9.11,9.11,0,0,0,5.37-3.37,29.81,29.81,0,0,0,2.83-4.44,3.64,3.64,0,0,0,.25-2.69c-.53-2.25-1.12-4.49-1.62-6.75-.65-2.94-.21-4.05,2.34-5.62,2.17-1.35,4.42-2.56,6.63-3.86a5.91,5.91,0,0,1,7.76.88c.94.87,2,1.64,2.86,2.56,4.24,4.38,13.13,2.76,15.5-2.64a28.86,28.86,0,0,1,2.12-3.75c1.69-2.64,3.11-3.24,6.18-2.51,3.3.79,6.58,1.67,9.86,2.55,1.6.42,1.94,1,2.06,2.65.17,2.42,0,4.87.4,7.29,1.2,7.15,7.05,10.71,13.9,8.29a8.8,8.8,0,0,1,6.16-.3,4.71,4.71,0,0,1,2.37,1.73,58.48,58.48,0,0,1,5.21,8.88c.87,1.8-.06,4.52-2,6a18.44,18.44,0,0,0-2.76,2.29c-2.58,3-2.47,6.4-1.9,10a7.44,7.44,0,0,0,4,5.35c1.51.9,3,1.82,4.52,2.71a4.9,4.9,0,0,1,2.38,5.75,84.21,84.21,0,0,1-2.26,8.56c-.92,2.8-2,3.57-4.89,3.67-1.28.05-2.56,0-3.84,0a8.94,8.94,0,0,0-7.83,3.85c-1,1.28-1.78,2.66-2.62,4a4,4,0,0,0-.19,3.14c.51,2.18,1.11,4.33,1.6,6.51.63,2.82.2,3.89-2.27,5.42-2.86,1.76-5.75,3.47-8.65,5.16-1.81,1.05-2.75,1-4.32-.44s-3.27-3.18-5-4.7c-3.9-3.52-11.53-2.44-14.35,2-1,1.55-1.95,3.11-3,4.65a5.31,5.31,0,0,1-6.08,2.49c-3-.64-5.92-1.33-8.81-2.25-2.55-.81-3.28-1.92-3.35-4.6a41.72,41.72,0,0,0-.19-6.22,9.73,9.73,0,0,0-12.17-8c-1.78.43-3.54,1-5.33,1.39-2.5.59-3.38.21-4.67-2-1.68-2.86-3.36-5.72-5-8.59-1.53-2.68-1.41-3.4.73-5.57,1.17-1.19,2.35-2.39,3.49-3.62a10.16,10.16,0,0,0-2-15.35c-1.92-1.22-3.93-2.31-5.85-3.52-1.5-.94-1.8-1.65-1.37-3.33.87-3.36,1.74-6.72,2.71-10,.83-2.85,1.8-3.52,4.75-3.57C324.84,327.07,325.6,327.08,326.36,327.08Zm24,21.53c0,11.15,9.46,20.72,20.38,20.65,11.3-.07,20.8-9.43,20.73-20.43a20.56,20.56,0,1,0-41.11-.22Z" transform="translate(-142.47 -232.57)"/><path class="cls-8" d="M268.6,376.06c0,15.69-12.32,27.83-28.25,27.82a27.84,27.84,0,1,1,28.25-27.82Z" transform="translate(-142.47 -232.57)"/><path class="cls-8" d="M368.88,460.69c0,13.4-11.27,24.82-24.46,24.79-13.41,0-24.77-11.25-24.78-24.48s11.3-24.9,24.41-24.88C357.48,436.13,368.88,447.41,368.88,460.69Z" transform="translate(-142.47 -232.57)"/><path class="cls-8" d="M350.36,348.61a20.56,20.56,0,1,1,41.11.22c.07,11-9.43,20.36-20.73,20.43C359.82,369.33,350.38,359.76,350.36,348.61Z" transform="translate(-142.47 -232.57)"/></svg>